<svg xmlns="http://www.w3.org/2000/svg" xmlns:xlink="http://www.w3.org/1999/xlink" contentStyleType="text/css" data-diagram-type="CLASS" height="388px" preserveAspectRatio="none" style="width:1485px;height:388px;background:#FFFFFF;" version="1.1" viewBox="0 0 1485 388" width="1485px" zoomAndPan="magnify"><title>Architecture: Model Interface and Implementations</title><defs/><g><g class="title" data-source-line="1"><text fill="#000000" font-family="sans-serif" font-size="14" font-weight="bold" lengthAdjust="spacing" textLength="406.0547" x="532.811" y="22.9951">Architecture: Model Interface and Implementations</text></g><!--cluster interface_pkg--><g class="cluster" data-entity="interface_pkg" data-source-line="6" data-uid="ent0002" id="cluster_interface_pkg"><path d="M8.5,123.4269 L136.2109,123.4269 A3.75,3.75 0 0 1 138.7109,125.9269 L145.7109,145.7238 L473.5,145.7238 A2.5,2.5 0 0 1 476,148.2238 L476,378.9269 A2.5,2.5 0 0 1 473.5,381.4269 L8.5,381.4269 A2.5,2.5 0 0 1 6,378.9269 L6,125.9269 A2.5,2.5 0 0 1 8.5,123.4269" fill="none" style="stroke:#000000;stroke-width:1.5;"/><line style="stroke:#000000;stroke-width:1.5;" x1="6" x2="145.7109" y1="145.7238" y2="145.7238"/><text fill="#000000" font-family="sans-serif" font-size="14" font-weight="bold" lengthAdjust="spacing" textLength="126.7109" x="10" y="138.422">model_interface</text></g><!--cluster hf_pkg--><g class="cluster" data-entity="hf_pkg" data-source-line="12" data-uid="ent0006" id="cluster_hf_pkg"><path d="M1109.5,123.4269 L1278.9033,123.4269 A3.75,3.75 0 0 1 1281.4033,125.9269 L1288.4033,145.7238 L1377.5,145.7238 A2.5,2.5 0 0 1 1380,148.2238 L1380,235.9269 A2.5,2.5 0 0 1 1377.5,238.4269 L1109.5,238.4269 A2.5,2.5 0 0 1 1107,235.9269 L1107,125.9269 A2.5,2.5 0 0 1 1109.5,123.4269" fill="none" style="stroke:#000000;stroke-width:1.5;"/><line style="stroke:#000000;stroke-width:1.5;" x1="1107" x2="1288.4033" y1="145.7238" y2="145.7238"/><text fill="#000000" font-family="sans-serif" font-size="14" font-weight="bold" lengthAdjust="spacing" textLength="168.4033" x="1111" y="138.422">model_qwen2_5_vl_hf</text></g><!--cluster vllm_pkg--><g class="cluster" data-entity="vllm_pkg" data-source-line="16" data-uid="ent0008" id="cluster_vllm_pkg"><path d="M518.5,123.4269 L705.1572,123.4269 A3.75,3.75 0 0 1 707.6572,125.9269 L714.6572,145.7238 L1064.5,145.7238 A2.5,2.5 0 0 1 1067,148.2238 L1067,235.9269 A2.5,2.5 0 0 1 1064.5,238.4269 L518.5,238.4269 A2.5,2.5 0 0 1 516,235.9269 L516,125.9269 A2.5,2.5 0 0 1 518.5,123.4269" fill="none" style="stroke:#000000;stroke-width:1.5;"/><line style="stroke:#000000;stroke-width:1.5;" x1="516" x2="714.6572" y1="145.7238" y2="145.7238"/><text fill="#000000" font-family="sans-serif" font-size="14" font-weight="bold" lengthAdjust="spacing" textLength="185.6572" x="520" y="138.422">model_qwen2_5_vl_vllm</text></g><!--class TextModelInterface--><g class="entity" data-entity="TextModelInterface" data-source-line="7" data-uid="ent0003" id="entity_TextModelInterface"><rect fill="#F1F1F1" height="48" rx="2.5" ry="2.5" style="stroke:#181818;stroke-width:0.5;" width="167.6523" x="276.17" y="309.4269"/><ellipse cx="291.17" cy="325.4269" fill="#ADD1B2" rx="11" ry="11" style="stroke:#181818;stroke-width:1;"/><path d="M294.1388,331.0675 Q293.5606,331.3644 292.92,331.505 Q292.2794,331.6613 291.5763,331.6613 Q289.0763,331.6613 287.7481,330.0206 Q286.4356,328.3644 286.4356,325.2394 Q286.4356,322.1144 287.7481,320.4581 Q289.0763,318.8019 291.5763,318.8019 Q292.2794,318.8019 292.92,318.9581 Q293.5763,319.1144 294.1388,319.4113 L294.1388,322.13 Q293.5138,321.5519 292.92,321.2863 Q292.3263,321.005 291.7013,321.005 Q290.3575,321.005 289.67,322.0831 Q288.9825,323.1456 288.9825,325.2394 Q288.9825,327.3331 289.67,328.4113 Q290.3575,329.4738 291.7013,329.4738 Q292.3263,329.4738 292.92,329.2081 Q293.5138,328.9269 294.1388,328.3488 L294.1388,331.0675 Z " fill="#000000"/><text fill="#000000" font-family="sans-serif" font-size="14" lengthAdjust="spacing" textLength="135.6523" x="305.17" y="330.2736">TextModelInterface</text><line style="stroke:#181818;stroke-width:0.5;" x1="277.17" x2="442.8223" y1="341.4269" y2="341.4269"/><line style="stroke:#181818;stroke-width:0.5;" x1="277.17" x2="442.8223" y1="349.4269" y2="349.4269"/></g><!--class StructuredModelInterface--><g class="entity" data-entity="StructuredModelInterface" data-source-line="8" data-uid="ent0004" id="entity_StructuredModelInterface"><rect fill="#F1F1F1" height="48" rx="2.5" ry="2.5" style="stroke:#181818;stroke-width:0.5;" width="211.0332" x="30.48" y="309.4269"/><ellipse cx="45.48" cy="325.4269" fill="#ADD1B2" rx="11" ry="11" style="stroke:#181818;stroke-width:1;"/><path d="M48.4488,331.0675 Q47.8706,331.3644 47.23,331.505 Q46.5894,331.6613 45.8863,331.6613 Q43.3863,331.6613 42.0581,330.0206 Q40.7456,328.3644 40.7456,325.2394 Q40.7456,322.1144 42.0581,320.4581 Q43.3863,318.8019 45.8863,318.8019 Q46.5894,318.8019 47.23,318.9581 Q47.8863,319.1144 48.4488,319.4113 L48.4488,322.13 Q47.8238,321.5519 47.23,321.2863 Q46.6363,321.005 46.0113,321.005 Q44.6675,321.005 43.98,322.0831 Q43.2925,323.1456 43.2925,325.2394 Q43.2925,327.3331 43.98,328.4113 Q44.6675,329.4738 46.0113,329.4738 Q46.6363,329.4738 47.23,329.2081 Q47.8238,328.9269 48.4488,328.3488 L48.4488,331.0675 Z " fill="#000000"/><text fill="#000000" font-family="sans-serif" font-size="14" lengthAdjust="spacing" textLength="179.0332" x="59.48" y="330.2736">StructuredModelInterface</text><line style="stroke:#181818;stroke-width:0.5;" x1="31.48" x2="240.5132" y1="341.4269" y2="341.4269"/><line style="stroke:#181818;stroke-width:0.5;" x1="31.48" x2="240.5132" y1="349.4269" y2="349.4269"/></g><!--class ModelFactory--><g class="entity" data-entity="ModelFactory" data-source-line="9" data-uid="ent0005" id="entity_ModelFactory"><rect fill="#F1F1F1" height="48" rx="2.5" ry="2.5" style="stroke:#181818;stroke-width:0.5;" width="126.459" x="212.77" y="166.4269"/><ellipse cx="227.77" cy="182.4269" fill="#ADD1B2" rx="11" ry="11" style="stroke:#181818;stroke-width:1;"/><path d="M230.7388,188.0675 Q230.1606,188.3644 229.52,188.505 Q228.8794,188.6613 228.1763,188.6613 Q225.6763,188.6613 224.3481,187.0206 Q223.0356,185.3644 223.0356,182.2394 Q223.0356,179.1144 224.3481,177.4581 Q225.6763,175.8019 228.1763,175.8019 Q228.8794,175.8019 229.52,175.9581 Q230.1763,176.1144 230.7388,176.4113 L230.7388,179.13 Q230.1138,178.5519 229.52,178.2863 Q228.9263,178.005 228.3013,178.005 Q226.9575,178.005 226.27,179.0831 Q225.5825,180.1456 225.5825,182.2394 Q225.5825,184.3331 226.27,185.4113 Q226.9575,186.4738 228.3013,186.4738 Q228.9263,186.4738 229.52,186.2081 Q230.1138,185.9269 230.7388,185.3488 L230.7388,188.0675 Z " fill="#000000"/><text fill="#000000" font-family="sans-serif" font-size="14" lengthAdjust="spacing" textLength="94.459" x="241.77" y="187.2736">ModelFactory</text><line style="stroke:#181818;stroke-width:0.5;" x1="213.77" x2="338.229" y1="198.4269" y2="198.4269"/><line style="stroke:#181818;stroke-width:0.5;" x1="213.77" x2="338.229" y1="206.4269" y2="206.4269"/></g><!--class Qwen25VLTextModel_HF--><g class="entity" data-entity="Qwen25VLTextModel_HF" data-source-line="13" data-uid="ent0007" id="entity_Qwen25VLTextModel_HF"><rect fill="#F1F1F1" height="48" rx="2.5" ry="2.5" style="stroke:#181818;stroke-width:0.5;" width="205.7012" x="1131.15" y="166.4269"/><ellipse cx="1146.15" cy="182.4269" fill="#ADD1B2" rx="11" ry="11" style="stroke:#181818;stroke-width:1;"/><path d="M1149.1188,188.0675 Q1148.5406,188.3644 1147.9,188.505 Q1147.2594,188.6613 1146.5563,188.6613 Q1144.0563,188.6613 1142.7281,187.0206 Q1141.4156,185.3644 1141.4156,182.2394 Q1141.4156,179.1144 1142.7281,177.4581 Q1144.0563,175.8019 1146.5563,175.8019 Q1147.2594,175.8019 1147.9,175.9581 Q1148.5563,176.1144 1149.1188,176.4113 L1149.1188,179.13 Q1148.4938,178.5519 1147.9,178.2863 Q1147.3063,178.005 1146.6813,178.005 Q1145.3375,178.005 1144.65,179.0831 Q1143.9625,180.1456 1143.9625,182.2394 Q1143.9625,184.3331 1144.65,185.4113 Q1145.3375,186.4738 1146.6813,186.4738 Q1147.3063,186.4738 1147.9,186.2081 Q1148.4938,185.9269 1149.1188,185.3488 L1149.1188,188.0675 Z " fill="#000000"/><text fill="#000000" font-family="sans-serif" font-size="14" lengthAdjust="spacing" textLength="173.7012" x="1160.15" y="187.2736">Qwen25VLTextModel_HF</text><line style="stroke:#181818;stroke-width:0.5;" x1="1132.15" x2="1335.8512" y1="198.4269" y2="198.4269"/><line style="stroke:#181818;stroke-width:0.5;" x1="1132.15" x2="1335.8512" y1="206.4269" y2="206.4269"/></g><!--class Qwen25VLTextModel_VLLM--><g class="entity" data-entity="Qwen25VLTextModel_VLLM" data-source-line="17" data-uid="ent0009" id="entity_Qwen25VLTextModel_VLLM"><rect fill="#F1F1F1" height="48" rx="2.5" ry="2.5" style="stroke:#181818;stroke-width:0.5;" width="224.377" x="798.81" y="166.4269"/><ellipse cx="813.81" cy="182.4269" fill="#ADD1B2" rx="11" ry="11" style="stroke:#181818;stroke-width:1;"/><path d="M816.7788,188.0675 Q816.2006,188.3644 815.56,188.505 Q814.9194,188.6613 814.2163,188.6613 Q811.7163,188.6613 810.3881,187.0206 Q809.0756,185.3644 809.0756,182.2394 Q809.0756,179.1144 810.3881,177.4581 Q811.7163,175.8019 814.2163,175.8019 Q814.9194,175.8019 815.56,175.9581 Q816.2163,176.1144 816.7788,176.4113 L816.7788,179.13 Q816.1538,178.5519 815.56,178.2863 Q814.9663,178.005 814.3413,178.005 Q812.9975,178.005 812.31,179.0831 Q811.6225,180.1456 811.6225,182.2394 Q811.6225,184.3331 812.31,185.4113 Q812.9975,186.4738 814.3413,186.4738 Q814.9663,186.4738 815.56,186.2081 Q816.1538,185.9269 816.7788,185.3488 L816.7788,188.0675 Z " fill="#000000"/><text fill="#000000" font-family="sans-serif" font-size="14" lengthAdjust="spacing" textLength="192.377" x="827.81" y="187.2736">Qwen25VLTextModel_VLLM</text><line style="stroke:#181818;stroke-width:0.5;" x1="799.81" x2="1022.187" y1="198.4269" y2="198.4269"/><line style="stroke:#181818;stroke-width:0.5;" x1="799.81" x2="1022.187" y1="206.4269" y2="206.4269"/></g><!--class Qwen25VLStructuredModel--><g class="entity" data-entity="Qwen25VLStructuredModel" data-source-line="18" data-uid="ent0010" id="entity_Qwen25VLStructuredModel"><rect fill="#F1F1F1" height="48" rx="2.5" ry="2.5" style="stroke:#181818;stroke-width:0.5;" width="223.502" x="540.25" y="166.4269"/><ellipse cx="555.25" cy="182.4269" fill="#ADD1B2" rx="11" ry="11" style="stroke:#181818;stroke-width:1;"/><path d="M558.2188,188.0675 Q557.6406,188.3644 557,188.505 Q556.3594,188.6613 555.6563,188.6613 Q553.1563,188.6613 551.8281,187.0206 Q550.5156,185.3644 550.5156,182.2394 Q550.5156,179.1144 551.8281,177.4581 Q553.1563,175.8019 555.6563,175.8019 Q556.3594,175.8019 557,175.9581 Q557.6563,176.1144 558.2188,176.4113 L558.2188,179.13 Q557.5938,178.5519 557,178.2863 Q556.4063,178.005 555.7813,178.005 Q554.4375,178.005 553.75,179.0831 Q553.0625,180.1456 553.0625,182.2394 Q553.0625,184.3331 553.75,185.4113 Q554.4375,186.4738 555.7813,186.4738 Q556.4063,186.4738 557,186.2081 Q557.5938,185.9269 558.2188,185.3488 L558.2188,188.0675 Z " fill="#000000"/><text fill="#000000" font-family="sans-serif" font-size="14" lengthAdjust="spacing" textLength="191.502" x="569.25" y="187.2736">Qwen25VLStructuredModel</text><line style="stroke:#181818;stroke-width:0.5;" x1="541.25" x2="762.752" y1="198.4269" y2="198.4269"/><line style="stroke:#181818;stroke-width:0.5;" x1="541.25" x2="762.752" y1="206.4269" y2="206.4269"/></g><g class="entity" data-entity="GMN18" data-source-line="35" data-uid="ent0019" id="entity_GMN18"><path d="M368.62,43.2969 L368.62,68.4297 L567.3798,68.4297 L567.3798,53.2969 L557.3798,43.2969 L368.62,43.2969" fill="#FEFFDD" style="stroke:#181818;stroke-width:0.5;"/><path d="M557.3798,43.2969 L557.3798,53.2969 L567.3798,53.2969 L557.3798,43.2969" fill="#FEFFDD" style="stroke:#181818;stroke-width:1;"/><text fill="#000000" font-family="sans-serif" font-size="13" lengthAdjust="spacing" textLength="177.7598" x="374.62" y="60.3638">Core interfaces and factory</text></g><g class="entity" data-entity="GMN21" data-source-line="36" data-uid="ent0022" id="entity_GMN21"><path d="M1265.33,320.8569 L1265.33,345.9897 L1478.6767,345.9897 L1478.6767,330.8569 L1468.6767,320.8569 L1265.33,320.8569" fill="#FEFFDD" style="stroke:#181818;stroke-width:0.5;"/><path d="M1468.6767,320.8569 L1468.6767,330.8569 L1478.6767,330.8569 L1468.6767,320.8569" fill="#FEFFDD" style="stroke:#181818;stroke-width:1;"/><text fill="#000000" font-family="sans-serif" font-size="13" lengthAdjust="spacing" textLength="192.3467" x="1271.33" y="337.9238">HuggingFace implementation</text></g><g class="entity" data-entity="GMN24" data-source-line="37" data-uid="ent0025" id="entity_GMN24"><path d="M977.63,320.8569 L977.63,345.9897 L1140.3605,345.9897 L1140.3605,330.8569 L1130.3605,320.8569 L977.63,320.8569" fill="#FEFFDD" style="stroke:#181818;stroke-width:0.5;"/><path d="M1130.3605,320.8569 L1130.3605,330.8569 L1140.3605,330.8569 L1130.3605,320.8569" fill="#FEFFDD" style="stroke:#181818;stroke-width:1;"/><text fill="#000000" font-family="sans-serif" font-size="13" lengthAdjust="spacing" textLength="141.7305" x="983.63" y="337.9238">VLLM implementation</text></g><!--link Qwen25VLTextModel_HF to TextModelInterface--><g class="link" data-entity-1="Qwen25VLTextModel_HF" data-entity-2="TextModelInterface" data-source-line="22" data-uid="lnk11" id="link_Qwen25VLTextModel_HF_TextModelInterface"><path codeLine="22" d="M1185,214.8169 C1154.13,228.5469 1113.04,244.9969 1075,254.4269 C851.54,309.8169 597.0693,325.2558 462.0993,329.9158" fill="none" id="Qwen25VLTextModel_HF-to-TextModelInterface" style="stroke:#181818;stroke-width:1;"/><polygon fill="none" points="444.11,330.5369,462.3063,335.9122,461.8922,323.9193,444.11,330.5369" style="stroke:#181818;stroke-width:1;"/><text fill="#000000" font-family="sans-serif" font-size="13" lengthAdjust="spacing" textLength="76.9082" x="1038.35" y="275.4938">implements</text></g><!--link Qwen25VLTextModel_VLLM to TextModelInterface--><g class="link" data-entity-1="Qwen25VLTextModel_VLLM" data-entity-2="TextModelInterface" data-source-line="23" data-uid="lnk12" id="link_Qwen25VLTextModel_VLLM_TextModelInterface"><path codeLine="23" d="M870.04,214.7969 C845.02,228.1669 811.98,244.2569 781,254.4269 C667.47,291.6969 548.3846,310.7136 462.1946,321.3436" fill="none" id="Qwen25VLTextModel_VLLM-to-TextModelInterface" style="stroke:#181818;stroke-width:1;"/><polygon fill="none" points="444.33,323.5469,462.9291,327.2985,461.4602,315.3887,444.33,323.5469" style="stroke:#181818;stroke-width:1;"/><text fill="#000000" font-family="sans-serif" font-size="13" lengthAdjust="spacing" textLength="76.9082" x="748.88" y="275.4938">implements</text></g><!--link Qwen25VLStructuredModel to StructuredModelInterface--><g class="link" data-entity-1="Qwen25VLStructuredModel" data-entity-2="StructuredModelInterface" data-source-line="24" data-uid="lnk13" id="link_Qwen25VLStructuredModel_StructuredModelInterface"><path codeLine="24" d="M594.23,214.8669 C562.07,227.4669 521.15,242.7569 484,254.4269 C441.11,267.8969 429.77,269.2069 386,279.4269 C338.8,290.4469 303.9719,298.0471 259.3619,307.3371" fill="none" id="Qwen25VLStructuredModel-to-StructuredModelInterface" style="stroke:#181818;stroke-width:1;"/><polygon fill="none" points="241.74,311.0069,260.5852,313.2111,258.1387,301.4631,241.74,311.0069" style="stroke:#181818;stroke-width:1;"/><text fill="#000000" font-family="sans-serif" font-size="13" lengthAdjust="spacing" textLength="76.9082" x="456.82" y="275.4938">implements</text></g><!--link ModelFactory to TextModelInterface--><g class="link" data-entity-1="ModelFactory" data-entity-2="TextModelInterface" data-source-line="27" data-uid="lnk14" id="link_ModelFactory_TextModelInterface"><path codeLine="27" d="M289.87,214.7069 C305.43,240.8369 327.4696,277.812 343.0396,303.952" fill="none" id="ModelFactory-to-TextModelInterface" style="stroke:#181818;stroke-width:1;stroke-dasharray:7,7;"/><polygon fill="#181818" points="346.11,309.1069,344.9409,299.3276,343.5513,304.8112,338.0678,303.4216,346.11,309.1069" style="stroke:#181818;stroke-width:1;"/><text fill="#000000" font-family="sans-serif" font-size="13" lengthAdjust="spacing" textLength="48.3247" x="328.99" y="275.4938">creates</text></g><!--link ModelFactory to StructuredModelInterface--><g class="link" data-entity-1="ModelFactory" data-entity-2="StructuredModelInterface" data-source-line="28" data-uid="lnk15" id="link_ModelFactory_StructuredModelInterface"><path codeLine="28" d="M252.88,214.7069 C226.94,240.8369 189.338,278.7096 163.378,304.8496" fill="none" id="ModelFactory-to-StructuredModelInterface" style="stroke:#181818;stroke-width:1;stroke-dasharray:7,7;"/><polygon fill="#181818" points="159.15,309.1069,168.3301,305.5396,162.6733,305.5591,162.6538,299.9023,159.15,309.1069" style="stroke:#181818;stroke-width:1;"/><text fill="#000000" font-family="sans-serif" font-size="13" lengthAdjust="spacing" textLength="48.3247" x="202.8" y="275.4938">creates</text></g><!--link interface_pkg to hf_pkg--><!--link hf_pkg to vllm_pkg--><!--link GMN18 to interface_pkg--><g class="link" data-entity-1="GMN18" data-entity-2="interface_pkg" data-source-line="35" data-uid="lnk20" id="link_GMN18_interface_pkg"><path d="M468,68.6269 C468,76.6094 468,87.9787 468,100.5847 C468,106.8877 468,113.4998 468,120.1522 C468,120.9838 468,121.816 468,122.6483 C468,122.8563 468,145.3613 468,145.5694" fill="none" id="GMN18-interface_pkg" style="stroke:#181818;stroke-width:1;stroke-dasharray:7,7;"/></g><!--link hf_pkg to GMN21--><g class="link" data-entity-1="hf_pkg" data-entity-2="GMN21" data-source-line="36" data-uid="lnk23" id="link_hf_pkg_GMN21"><path d="M1372,238.5981 C1372,239.0204 1372,239.4441 1372,239.8689 C1372,241.5682 1372,243.2866 1372,245.0194 C1372,272.7444 1372,304.1769 1372,320.7569" fill="none" id="hf_pkg-GMN21" style="stroke:#181818;stroke-width:1;stroke-dasharray:7,7;"/></g><!--link vllm_pkg to GMN24--><g class="link" data-entity-1="vllm_pkg" data-entity-2="GMN24" data-source-line="37" data-uid="lnk26" id="link_vllm_pkg_GMN24"><path d="M1059,238.5981 C1059,239.0204 1059,239.4441 1059,239.8689 C1059,241.5682 1059,243.2866 1059,245.0194 C1059,272.7444 1059,304.1769 1059,320.7569" fill="none" id="vllm_pkg-GMN24" style="stroke:#181818;stroke-width:1;stroke-dasharray:7,7;"/></g><!--SRC=[bLJDRjGm4BxxAKQzSDeUa7h9eLA5j6gbxG61Ugcgo2HErceIBuctW02fBOWJ4aUE2F42snMXKRUbhp1-8yOcIPliRX479xRdxvkPRwobJWJivC5OQX7eQIuys5UXI60lqoAFU220Po7ifPD4f2BJN4kL5Omz0lnXpimvpl26rXmNMD5tXYLU0srASqh22g_eQc4-az9lBC7ftfhJsgAaSuKbqse2Mi4BfRLA8PGvGQ4mZ4ruSCnZ0HkfnUJB1jC6y0BQapyvZk4j0mWINXJmNBpMBeSsXLRqJETJbsNOLG1eLPnWo0EjyZVi_HA4bwz4zjZVyayIVnmv6EEe5_-fLTaw6BKu_DtXmvvEaYHrlkpcdzuEHgFz9N4lCnkFMlGTv-OBNc85LFFIjeBgVOapyud-5Lk550Q3TzihQWWUo8O41LkDwlziUv3_6g_jKCT5BxUFbDa5PMZfLh7x7OJDpJM0WbnmBOfbxGSGD3Os_3SNxyPym9zO4TNB-pHVnt_BV7E6jtHOqFhLJ03WXRkueZLdNM8F3iSo34Ls50wsQxAncdCTKSCTX-uhXRqc4EUk8fdI0koGgQWtDHuyKRcukopSj4Sr_PrTFPLaMaVrO7SQnpABXxOgilCoz4rQGdlW2DBL_WC0]--></g></svg>