<svg xmlns="http://www.w3.org/2000/svg" xmlns:xlink="http://www.w3.org/1999/xlink" contentStyleType="text/css" data-diagram-type="CLASS" height="532px" preserveAspectRatio="none" style="width:517px;height:532px;background:#FFFFFF;" version="1.1" viewBox="0 0 517 532" width="517px" zoomAndPan="magnify"><defs/><g><!--class uv_workspace--><g class="entity" data-entity="uv_workspace" data-source-line="10" data-uid="ent0002" id="entity_uv_workspace"><rect fill="#F1F1F1" height="64.2969" rx="2.5" ry="2.5" style="stroke:#181818;stroke-width:0.5;" width="131.1074" x="285.91" y="7"/><ellipse cx="300.91" cy="23" fill="#ADD1B2" rx="11" ry="11" style="stroke:#181818;stroke-width:1;"/><path d="M303.8788,28.6406 Q303.3006,28.9375 302.66,29.0781 Q302.0194,29.2344 301.3163,29.2344 Q298.8163,29.2344 297.4881,27.5938 Q296.1756,25.9375 296.1756,22.8125 Q296.1756,19.6875 297.4881,18.0313 Q298.8163,16.375 301.3163,16.375 Q302.0194,16.375 302.66,16.5313 Q303.3163,16.6875 303.8788,16.9844 L303.8788,19.7031 Q303.2538,19.125 302.66,18.8594 Q302.0663,18.5781 301.4413,18.5781 Q300.0975,18.5781 299.41,19.6563 Q298.7225,20.7188 298.7225,22.8125 Q298.7225,24.9063 299.41,25.9844 Q300.0975,27.0469 301.4413,27.0469 Q302.0663,27.0469 302.66,26.7813 Q303.2538,26.5 303.8788,25.9219 L303.8788,28.6406 Z " fill="#000000"/><text fill="#000000" font-family="sans-serif" font-size="14" lengthAdjust="spacing" textLength="99.1074" x="314.91" y="27.8467">uv_workspace</text><line style="stroke:#181818;stroke-width:0.5;" x1="286.91" x2="416.0174" y1="39" y2="39"/><text fill="#000000" font-family="sans-serif" font-size="14" lengthAdjust="spacing" textLength="27.0498" x="291.91" y="55.9951">&#1076;&#1083;&#1103;</text><text fill="#000000" font-family="sans-serif" font-size="14" lengthAdjust="spacing" textLength="4.4502" x="318.9598" y="55.9951">&#160;</text><text fill="#000000" font-family="sans-serif" font-size="14" lengthAdjust="spacing" textLength="42.1504" x="323.41" y="55.9951">&#1101;&#1090;&#1072;&#1087;&#1072;</text><line style="stroke:#181818;stroke-width:0.5;" x1="286.91" x2="416.0174" y1="63.2969" y2="63.2969"/></g><!--class Docker_Image--><g class="entity" data-entity="Docker_Image" data-source-line="11" data-uid="ent0003" id="entity_Docker_Image"><rect fill="#F1F1F1" height="64.2969" rx="2.5" ry="2.5" style="stroke:#181818;stroke-width:0.5;" width="132.3652" x="212.28" y="178.3"/><ellipse cx="227.28" cy="194.3" fill="#ADD1B2" rx="11" ry="11" style="stroke:#181818;stroke-width:1;"/><path d="M230.2488,199.9406 Q229.6706,200.2375 229.03,200.3781 Q228.3894,200.5344 227.6863,200.5344 Q225.1863,200.5344 223.8581,198.8938 Q222.5456,197.2375 222.5456,194.1125 Q222.5456,190.9875 223.8581,189.3313 Q225.1863,187.675 227.6863,187.675 Q228.3894,187.675 229.03,187.8313 Q229.6863,187.9875 230.2488,188.2844 L230.2488,191.0031 Q229.6238,190.425 229.03,190.1594 Q228.4363,189.8781 227.8113,189.8781 Q226.4675,189.8781 225.78,190.9563 Q225.0925,192.0188 225.0925,194.1125 Q225.0925,196.2063 225.78,197.2844 Q226.4675,198.3469 227.8113,198.3469 Q228.4363,198.3469 229.03,198.0813 Q229.6238,197.8 230.2488,197.2219 L230.2488,199.9406 Z " fill="#000000"/><text fill="#000000" font-family="sans-serif" font-size="14" lengthAdjust="spacing" textLength="100.3652" x="241.28" y="199.1467">Docker_Image</text><line style="stroke:#181818;stroke-width:0.5;" x1="213.28" x2="343.6452" y1="210.3" y2="210.3"/><text fill="#000000" font-family="sans-serif" font-size="14" lengthAdjust="spacing" textLength="27.0498" x="218.28" y="227.2951">&#1076;&#1083;&#1103;</text><text fill="#000000" font-family="sans-serif" font-size="14" lengthAdjust="spacing" textLength="4.4502" x="245.3298" y="227.2951">&#160;</text><text fill="#000000" font-family="sans-serif" font-size="14" lengthAdjust="spacing" textLength="42.1504" x="249.78" y="227.2951">&#1101;&#1090;&#1072;&#1087;&#1072;</text><line style="stroke:#181818;stroke-width:0.5;" x1="213.28" x2="343.6452" y1="234.5969" y2="234.5969"/></g><!--class uv_venv--><g class="entity" data-entity="uv_venv" data-source-line="12" data-uid="ent0004" id="entity_uv_venv"><rect fill="#F1F1F1" height="64.2969" rx="2.5" ry="2.5" style="stroke:#181818;stroke-width:0.5;" width="90.2148" x="379.36" y="178.3"/><ellipse cx="394.36" cy="194.3" fill="#ADD1B2" rx="11" ry="11" style="stroke:#181818;stroke-width:1;"/><path d="M397.3288,199.9406 Q396.7506,200.2375 396.11,200.3781 Q395.4694,200.5344 394.7663,200.5344 Q392.2663,200.5344 390.9381,198.8938 Q389.6256,197.2375 389.6256,194.1125 Q389.6256,190.9875 390.9381,189.3313 Q392.2663,187.675 394.7663,187.675 Q395.4694,187.675 396.11,187.8313 Q396.7663,187.9875 397.3288,188.2844 L397.3288,191.0031 Q396.7038,190.425 396.11,190.1594 Q395.5163,189.8781 394.8913,189.8781 Q393.5475,189.8781 392.86,190.9563 Q392.1725,192.0188 392.1725,194.1125 Q392.1725,196.2063 392.86,197.2844 Q393.5475,198.3469 394.8913,198.3469 Q395.5163,198.3469 396.11,198.0813 Q396.7038,197.8 397.3288,197.2219 L397.3288,199.9406 Z " fill="#000000"/><text fill="#000000" font-family="sans-serif" font-size="14" lengthAdjust="spacing" textLength="58.2148" x="408.36" y="199.1467">uv_venv</text><line style="stroke:#181818;stroke-width:0.5;" x1="380.36" x2="468.5748" y1="210.3" y2="210.3"/><text fill="#000000" font-family="sans-serif" font-size="14" lengthAdjust="spacing" textLength="27.0498" x="385.36" y="227.2951">&#1076;&#1083;&#1103;</text><text fill="#000000" font-family="sans-serif" font-size="14" lengthAdjust="spacing" textLength="4.4502" x="412.4098" y="227.2951">&#160;</text><text fill="#000000" font-family="sans-serif" font-size="14" lengthAdjust="spacing" textLength="42.1504" x="416.86" y="227.2951">&#1101;&#1090;&#1072;&#1087;&#1072;</text><line style="stroke:#181818;stroke-width:0.5;" x1="380.36" x2="468.5748" y1="234.5969" y2="234.5969"/></g><!--class Docker_Container--><g class="entity" data-entity="Docker_Container" data-source-line="13" data-uid="ent0005" id="entity_Docker_Container"><rect fill="#F1F1F1" height="64.2969" rx="2.5" ry="2.5" style="stroke:#181818;stroke-width:0.5;" width="156.9336" x="7" y="319.6"/><ellipse cx="22" cy="335.6" fill="#ADD1B2" rx="11" ry="11" style="stroke:#181818;stroke-width:1;"/><path d="M24.9688,341.2406 Q24.3906,341.5375 23.75,341.6781 Q23.1094,341.8344 22.4063,341.8344 Q19.9063,341.8344 18.5781,340.1938 Q17.2656,338.5375 17.2656,335.4125 Q17.2656,332.2875 18.5781,330.6313 Q19.9063,328.975 22.4063,328.975 Q23.1094,328.975 23.75,329.1313 Q24.4063,329.2875 24.9688,329.5844 L24.9688,332.3031 Q24.3438,331.725 23.75,331.4594 Q23.1563,331.1781 22.5313,331.1781 Q21.1875,331.1781 20.5,332.2563 Q19.8125,333.3188 19.8125,335.4125 Q19.8125,337.5063 20.5,338.5844 Q21.1875,339.6469 22.5313,339.6469 Q23.1563,339.6469 23.75,339.3813 Q24.3438,339.1 24.9688,338.5219 L24.9688,341.2406 Z " fill="#000000"/><text fill="#000000" font-family="sans-serif" font-size="14" lengthAdjust="spacing" textLength="124.9336" x="36" y="340.4467">Docker_Container</text><line style="stroke:#181818;stroke-width:0.5;" x1="8" x2="162.9336" y1="351.6" y2="351.6"/><text fill="#000000" font-family="sans-serif" font-size="14" lengthAdjust="spacing" textLength="27.0498" x="13" y="368.5951">&#1076;&#1083;&#1103;</text><text fill="#000000" font-family="sans-serif" font-size="14" lengthAdjust="spacing" textLength="4.4502" x="40.0498" y="368.5951">&#160;</text><text fill="#000000" font-family="sans-serif" font-size="14" lengthAdjust="spacing" textLength="42.1504" x="44.5" y="368.5951">&#1101;&#1090;&#1072;&#1087;&#1072;</text><line style="stroke:#181818;stroke-width:0.5;" x1="8" x2="162.9336" y1="375.8969" y2="375.8969"/></g><!--class Singularity_Image--><g class="entity" data-entity="Singularity_Image" data-source-line="14" data-uid="ent0006" id="entity_Singularity_Image"><rect fill="#F1F1F1" height="64.2969" rx="2.5" ry="2.5" style="stroke:#181818;stroke-width:0.5;" width="158.1436" x="199.4" y="319.6"/><ellipse cx="214.4" cy="335.6" fill="#ADD1B2" rx="11" ry="11" style="stroke:#181818;stroke-width:1;"/><path d="M217.3688,341.2406 Q216.7906,341.5375 216.15,341.6781 Q215.5094,341.8344 214.8063,341.8344 Q212.3063,341.8344 210.9781,340.1938 Q209.6656,338.5375 209.6656,335.4125 Q209.6656,332.2875 210.9781,330.6313 Q212.3063,328.975 214.8063,328.975 Q215.5094,328.975 216.15,329.1313 Q216.8063,329.2875 217.3688,329.5844 L217.3688,332.3031 Q216.7438,331.725 216.15,331.4594 Q215.5563,331.1781 214.9313,331.1781 Q213.5875,331.1781 212.9,332.2563 Q212.2125,333.3188 212.2125,335.4125 Q212.2125,337.5063 212.9,338.5844 Q213.5875,339.6469 214.9313,339.6469 Q215.5563,339.6469 216.15,339.3813 Q216.7438,339.1 217.3688,338.5219 L217.3688,341.2406 Z " fill="#000000"/><text fill="#000000" font-family="sans-serif" font-size="14" lengthAdjust="spacing" textLength="126.1436" x="228.4" y="340.4467">Singularity_Image</text><line style="stroke:#181818;stroke-width:0.5;" x1="200.4" x2="356.5436" y1="351.6" y2="351.6"/><text fill="#000000" font-family="sans-serif" font-size="14" lengthAdjust="spacing" textLength="27.0498" x="205.4" y="368.5951">&#1076;&#1083;&#1103;</text><text fill="#000000" font-family="sans-serif" font-size="14" lengthAdjust="spacing" textLength="4.4502" x="232.4498" y="368.5951">&#160;</text><text fill="#000000" font-family="sans-serif" font-size="14" lengthAdjust="spacing" textLength="42.1504" x="236.9" y="368.5951">&#1101;&#1090;&#1072;&#1087;&#1072;</text><line style="stroke:#181818;stroke-width:0.5;" x1="200.4" x2="356.5436" y1="375.8969" y2="375.8969"/></g><!--class Singularity_Container--><g class="entity" data-entity="Singularity_Container" data-source-line="15" data-uid="ent0007" id="entity_Singularity_Container"><rect fill="#F1F1F1" height="64.2969" rx="2.5" ry="2.5" style="stroke:#181818;stroke-width:0.5;" width="182.7119" x="187.11" y="460.89"/><ellipse cx="202.11" cy="476.89" fill="#ADD1B2" rx="11" ry="11" style="stroke:#181818;stroke-width:1;"/><path d="M205.0788,482.5306 Q204.5006,482.8275 203.86,482.9681 Q203.2194,483.1244 202.5163,483.1244 Q200.0163,483.1244 198.6881,481.4838 Q197.3756,479.8275 197.3756,476.7025 Q197.3756,473.5775 198.6881,471.9213 Q200.0163,470.265 202.5163,470.265 Q203.2194,470.265 203.86,470.4213 Q204.5163,470.5775 205.0788,470.8744 L205.0788,473.5931 Q204.4538,473.015 203.86,472.7494 Q203.2663,472.4681 202.6413,472.4681 Q201.2975,472.4681 200.61,473.5463 Q199.9225,474.6088 199.9225,476.7025 Q199.9225,478.7963 200.61,479.8744 Q201.2975,480.9369 202.6413,480.9369 Q203.2663,480.9369 203.86,480.6713 Q204.4538,480.39 205.0788,479.8119 L205.0788,482.5306 Z " fill="#000000"/><text fill="#000000" font-family="sans-serif" font-size="14" lengthAdjust="spacing" textLength="150.7119" x="216.11" y="481.7367">Singularity_Container</text><line style="stroke:#181818;stroke-width:0.5;" x1="188.11" x2="368.8219" y1="492.89" y2="492.89"/><text fill="#000000" font-family="sans-serif" font-size="14" lengthAdjust="spacing" textLength="27.0498" x="193.11" y="509.8851">&#1076;&#1083;&#1103;</text><text fill="#000000" font-family="sans-serif" font-size="14" lengthAdjust="spacing" textLength="4.4502" x="220.1598" y="509.8851">&#160;</text><text fill="#000000" font-family="sans-serif" font-size="14" lengthAdjust="spacing" textLength="42.1504" x="224.61" y="509.8851">&#1101;&#1090;&#1072;&#1087;&#1072;</text><line style="stroke:#181818;stroke-width:0.5;" x1="188.11" x2="368.8219" y1="517.1869" y2="517.1869"/></g><!--class RunPod_pod--><g class="entity" data-entity="RunPod_pod" data-source-line="16" data-uid="ent0008" id="entity_RunPod_pod"><rect fill="#F1F1F1" height="64.2969" rx="2.5" ry="2.5" style="stroke:#181818;stroke-width:0.5;" width="118.707" x="392.11" y="319.6"/><ellipse cx="407.11" cy="335.6" fill="#ADD1B2" rx="11" ry="11" style="stroke:#181818;stroke-width:1;"/><path d="M410.0788,341.2406 Q409.5006,341.5375 408.86,341.6781 Q408.2194,341.8344 407.5163,341.8344 Q405.0163,341.8344 403.6881,340.1938 Q402.3756,338.5375 402.3756,335.4125 Q402.3756,332.2875 403.6881,330.6313 Q405.0163,328.975 407.5163,328.975 Q408.2194,328.975 408.86,329.1313 Q409.5163,329.2875 410.0788,329.5844 L410.0788,332.3031 Q409.4538,331.725 408.86,331.4594 Q408.2663,331.1781 407.6413,331.1781 Q406.2975,331.1781 405.61,332.2563 Q404.9225,333.3188 404.9225,335.4125 Q404.9225,337.5063 405.61,338.5844 Q406.2975,339.6469 407.6413,339.6469 Q408.2663,339.6469 408.86,339.3813 Q409.4538,339.1 410.0788,338.5219 L410.0788,341.2406 Z " fill="#000000"/><text fill="#000000" font-family="sans-serif" font-size="14" lengthAdjust="spacing" textLength="86.707" x="421.11" y="340.4467">RunPod_pod</text><line style="stroke:#181818;stroke-width:0.5;" x1="393.11" x2="509.817" y1="351.6" y2="351.6"/><text fill="#000000" font-family="sans-serif" font-size="14" lengthAdjust="spacing" textLength="27.0498" x="398.11" y="368.5951">&#1076;&#1083;&#1103;</text><text fill="#000000" font-family="sans-serif" font-size="14" lengthAdjust="spacing" textLength="4.4502" x="425.1598" y="368.5951">&#160;</text><text fill="#000000" font-family="sans-serif" font-size="14" lengthAdjust="spacing" textLength="42.1504" x="429.61" y="368.5951">&#1101;&#1090;&#1072;&#1087;&#1072;</text><line style="stroke:#181818;stroke-width:0.5;" x1="393.11" x2="509.817" y1="375.8969" y2="375.8969"/></g><!--link uv_workspace to Docker_Image--><g class="link" data-entity-1="uv_workspace" data-entity-2="Docker_Image" data-source-line="19" data-uid="lnk9" id="link_uv_workspace_Docker_Image"><path codeLine="19" d="M311.97,71.78 C303.56,80.46 295.66,90.48 290.47,101.3 C278.94,125.31 276.4406,149.6801 276.5506,172.1201" fill="none" id="uv_workspace-to-Docker_Image" style="stroke:#181818;stroke-width:1;"/><polygon fill="#181818" points="276.58,178.12,280.5358,169.1005,276.5555,173.1201,272.5359,169.1397,276.58,178.12" style="stroke:#181818;stroke-width:1;"/><text fill="#000000" font-family="sans-serif" font-size="13" lengthAdjust="spacing" textLength="54.5708" x="309.0149" y="114.3669">&#1089;&#1086;&#1073;&#1088;&#1072;&#1090;&#1100;</text><text fill="#000000" font-family="sans-serif" font-size="13" lengthAdjust="spacing" textLength="58.5952" x="307.0027" y="129.4997">&#1086;&#1073;&#1088;&#1072;&#1079; &#1080;&#1079;</text><text fill="#000000" font-family="sans-serif" font-size="13" lengthAdjust="spacing" textLength="89.6606" x="291.47" y="144.6325">uv workspace</text></g><!--link uv_workspace to uv_venv--><g class="link" data-entity-1="uv_workspace" data-entity-2="uv_venv" data-source-line="20" data-uid="lnk10" id="link_uv_workspace_uv_venv"><path codeLine="20" d="M370.28,71.7 C375.52,81.07 380.99,91.46 385.47,101.3 C396.95,126.55 405.5822,150.5714 412.7922,172.4514" fill="none" id="uv_workspace-to-uv_venv" style="stroke:#181818;stroke-width:1;"/><polygon fill="#181818" points="414.67,178.15,415.6523,168.3503,413.1051,173.4012,408.0542,170.854,414.67,178.15" style="stroke:#181818;stroke-width:1;"/><text fill="#000000" font-family="sans-serif" font-size="13" lengthAdjust="spacing" textLength="78.4697" x="405.28" y="114.3669">&#1088;&#1072;&#1079;&#1074;&#1077;&#1088;&#1085;&#1091;&#1090;&#1100;</text><text fill="#000000" font-family="sans-serif" font-size="13" lengthAdjust="spacing" textLength="31.624" x="428.7029" y="129.4997">venv</text><text fill="#000000" font-family="sans-serif" font-size="13" lengthAdjust="spacing" textLength="76.4067" x="406.3115" y="144.6325">&#1086;&#1082;&#1088;&#1091;&#1078;&#1077;&#1085;&#1080;&#1077;</text></g><!--link Docker_Image to Docker_Container--><g class="link" data-entity-1="Docker_Image" data-entity-2="Docker_Container" data-source-line="22" data-uid="lnk11" id="link_Docker_Image_Docker_Container"><path codeLine="22" d="M234.67,243.06 C203.09,265.85 165.4947,292.978 133.9547,315.748" fill="none" id="Docker_Image-to-Docker_Container" style="stroke:#181818;stroke-width:1;"/><polygon fill="#181818" points="129.09,319.26,138.7285,317.2351,133.1439,316.3333,134.0457,310.7488,129.09,319.26" style="stroke:#181818;stroke-width:1;"/><text fill="#000000" font-family="sans-serif" font-size="13" lengthAdjust="spacing" textLength="69.4751" x="194.52" y="285.6669">&#1079;&#1072;&#1087;&#1091;&#1089;&#1090;&#1080;&#1090;&#1100;</text></g><!--link Docker_Image to Singularity_Image--><g class="link" data-entity-1="Docker_Image" data-entity-2="Singularity_Image" data-source-line="23" data-uid="lnk12" id="link_Docker_Image_Singularity_Image"><path codeLine="23" d="M278.47,243.06 C278.47,265.85 278.47,290.49 278.47,313.26" fill="none" id="Docker_Image-to-Singularity_Image" style="stroke:#181818;stroke-width:1;"/><polygon fill="#181818" points="278.47,319.26,282.47,310.26,278.47,314.26,274.47,310.26,278.47,319.26" style="stroke:#181818;stroke-width:1;"/><text fill="#000000" font-family="sans-serif" font-size="13" lengthAdjust="spacing" textLength="111.3062" x="279.47" y="285.6669">&#1082;&#1086;&#1085;&#1074;&#1077;&#1088;&#1090;&#1080;&#1088;&#1086;&#1074;&#1072;&#1090;&#1100;</text></g><!--link Docker_Image to RunPod_pod--><g class="link" data-entity-1="Docker_Image" data-entity-2="RunPod_pod" data-source-line="24" data-uid="lnk13" id="link_Docker_Image_RunPod_pod"><path codeLine="24" d="M345.13,237.5 C363.96,246.8 383.62,258.54 399.47,272.6 C414.22,285.68 423.6315,298.6687 432.6315,314.1987" fill="none" id="Docker_Image-to-RunPod_pod" style="stroke:#181818;stroke-width:1;"/><polygon fill="#181818" points="435.64,319.39,434.5882,309.5975,433.133,315.0639,427.6665,313.6087,435.64,319.39" style="stroke:#181818;stroke-width:1;"/><text fill="#000000" font-family="sans-serif" font-size="13" lengthAdjust="spacing" textLength="78.4697" x="416.24" y="285.6669">&#1088;&#1072;&#1079;&#1074;&#1077;&#1088;&#1085;&#1091;&#1090;&#1100;</text></g><!--link Singularity_Image to Singularity_Container--><g class="link" data-entity-1="Singularity_Image" data-entity-2="Singularity_Container" data-source-line="26" data-uid="lnk14" id="link_Singularity_Image_Singularity_Container"><path codeLine="26" d="M278.47,384.35 C278.47,407.15 278.47,431.79 278.47,454.56" fill="none" id="Singularity_Image-to-Singularity_Container" style="stroke:#181818;stroke-width:1;"/><polygon fill="#181818" points="278.47,460.56,282.47,451.56,278.47,455.56,274.47,451.56,278.47,460.56" style="stroke:#181818;stroke-width:1;"/><text fill="#000000" font-family="sans-serif" font-size="13" lengthAdjust="spacing" textLength="69.4751" x="279.47" y="426.9569">&#1079;&#1072;&#1087;&#1091;&#1089;&#1090;&#1080;&#1090;&#1100;</text></g><!--SRC=[VLBHIW9157sVhxZGGq-21Rq41c4llKK5lGWokPCjhZCoxceHWMRGGuL_4FG7PgwAjlOBT_weExjfceiBCpjpvvmpTywzzOehQrppAcXHyhaiUmBk6D2dLI2TlD9IQDZ9ng5BfHsXyyfJ6hQosUNWXUlurx33xbbzeUY8Anvu_hcuyGyzjoohGlfGeade9LHJyrh2tjtBChODkLmEy0s_JGj37D2OqeXmZ26O3eveEyC-c3RWDwqYqpKFD3_Z5uw1K9OHKMXi7catmHwjPwJL-mK0_ICYVbAqRHxeP6QU4W4WQ8WJ6oR0bys41OrYK-bAlSPB0lQ1vAUc2-QL83rAeCUELAaYTF6uoilf059e2DdOHCuhwNFNEfq6EdDbEV2uTltR3TSiepRhdGRoH3d5cd9IZ-SbUCU-wPBViMCX3d5WElCA96Qk-PF97C0_FqoRhFom_fFNBmKvt-785cjKa4435WBhQd_c9IJiOqYho7GIENiOYqvCYt8Rpbk5hTPbAR4LRqRspQJLZXk65DTfgUvFRESbkSJCbkt9v8dh2Yj-fps3fPJu_zMRq_u1]--></g></svg>