<svg xmlns="http://www.w3.org/2000/svg" xmlns:xlink="http://www.w3.org/1999/xlink" contentStyleType="text/css" data-diagram-type="CLASS" height="618px" preserveAspectRatio="none" style="width:913px;height:618px;background:#FFFFFF;" version="1.1" viewBox="0 0 913 618" width="913px" zoomAndPan="magnify"><defs/><g><!--cluster ? Task 1--><g class="cluster" data-entity=". Task 1" data-source-line="4" data-uid="ent0003" id="cluster_. Task 1"><path d="M9.5,80 L73.0313,80 A5.25,5.25 0 0 1 76.5313,83.5 L83.5313,102.2969 L210.5,102.2969 A3.5,3.5 0 0 1 214,105.7969 L214,607.5 A3.5,3.5 0 0 1 210.5,611 L9.5,611 A3.5,3.5 0 0 1 6,607.5 L6,83.5 A3.5,3.5 0 0 1 9.5,80" fill="none" style="stroke:#696969;stroke-width:1;"/><line style="stroke:#696969;stroke-width:1;" x1="6" x2="83.5313" y1="102.2969" y2="102.2969"/><text fill="#000000" font-family="sans-serif" font-size="14" font-weight="bold" lengthAdjust="spacing" textLength="64.5313" x="10" y="94.9951">&#128257; Task 1</text></g><!--cluster ? Task 2--><g class="cluster" data-entity=". Task 2" data-source-line="12" data-uid="ent0009" id="cluster_. Task 2"><path d="M241.5,80 L305.0313,80 A5.25,5.25 0 0 1 308.5313,83.5 L315.5313,102.2969 L442.5,102.2969 A3.5,3.5 0 0 1 446,105.7969 L446,499.5 A3.5,3.5 0 0 1 442.5,503 L241.5,503 A3.5,3.5 0 0 1 238,499.5 L238,83.5 A3.5,3.5 0 0 1 241.5,80" fill="none" style="stroke:#696969;stroke-width:1;"/><line style="stroke:#696969;stroke-width:1;" x1="238" x2="315.5313" y1="102.2969" y2="102.2969"/><text fill="#000000" font-family="sans-serif" font-size="14" font-weight="bold" lengthAdjust="spacing" textLength="64.5313" x="242" y="94.9951">&#9193; Task 2</text></g><!--cluster ?? Task 3--><g class="cluster" data-entity=".. Task 3" data-source-line="19" data-uid="ent0014" id="cluster_.. Task 3"><path d="M473.5,80 L537.0313,80 A5.25,5.25 0 0 1 540.5313,83.5 L547.5313,102.2969 L672.5,102.2969 A3.5,3.5 0 0 1 676,105.7969 L676,391.5 A3.5,3.5 0 0 1 672.5,395 L473.5,395 A3.5,3.5 0 0 1 470,391.5 L470,83.5 A3.5,3.5 0 0 1 473.5,80" fill="none" style="stroke:#696969;stroke-width:1;"/><line style="stroke:#696969;stroke-width:1;" x1="470" x2="547.5313" y1="102.2969" y2="102.2969"/><text fill="#000000" font-family="sans-serif" font-size="14" font-weight="bold" lengthAdjust="spacing" textLength="64.5313" x="474" y="94.9951">&#9197;&#65039; Task 3</text></g><!--cluster ? Task 4--><g class="cluster" data-entity=". Task 4" data-source-line="25" data-uid="ent0018" id="cluster_. Task 4"><path d="M703.5,80 L767.0313,80 A5.25,5.25 0 0 1 770.5313,83.5 L777.5313,102.2969 L902.5,102.2969 A3.5,3.5 0 0 1 906,105.7969 L906,283.5 A3.5,3.5 0 0 1 902.5,287 L703.5,287 A3.5,3.5 0 0 1 700,283.5 L700,83.5 A3.5,3.5 0 0 1 703.5,80" fill="none" style="stroke:#696969;stroke-width:1;"/><line style="stroke:#696969;stroke-width:1;" x1="700" x2="777.5313" y1="102.2969" y2="102.2969"/><text fill="#000000" font-family="sans-serif" font-size="14" font-weight="bold" lengthAdjust="spacing" textLength="64.5313" x="704" y="94.9951">&#127937; Task 4</text></g><!--class A1--><g class="entity" data-entity="A1" data-source-line="5" data-uid="ent0004" id="entity_A1"><rect fill="#F1F1F1" height="48" rx="3.5" ry="3.5" style="stroke:#181818;stroke-width:0.5;" width="163.6055" x="31.2" y="115"/><ellipse cx="46.2" cy="131" fill="#ADD1B2" rx="11" ry="11" style="stroke:#181818;stroke-width:1;"/><path d="M49.1688,136.6406 Q48.5906,136.9375 47.95,137.0781 Q47.3094,137.2344 46.6063,137.2344 Q44.1063,137.2344 42.7781,135.5938 Q41.4656,133.9375 41.4656,130.8125 Q41.4656,127.6875 42.7781,126.0313 Q44.1063,124.375 46.6063,124.375 Q47.3094,124.375 47.95,124.5313 Q48.6063,124.6875 49.1688,124.9844 L49.1688,127.7031 Q48.5438,127.125 47.95,126.8594 Q47.3563,126.5781 46.7313,126.5781 Q45.3875,126.5781 44.7,127.6563 Q44.0125,128.7188 44.0125,130.8125 Q44.0125,132.9063 44.7,133.9844 Q45.3875,135.0469 46.7313,135.0469 Q47.3563,135.0469 47.95,134.7813 Q48.5438,134.5 49.1688,133.9219 L49.1688,136.6406 Z " fill="#000000"/><text fill="#000000" font-family="sans-serif" font-size="14" lengthAdjust="spacing" textLength="131.6055" x="60.2" y="135.8467">&#1054;&#1073;&#1091;&#1095;&#1077;&#1085;&#1080;&#1077; &#1084;&#1086;&#1076;&#1077;&#1083;&#1080;</text><line style="stroke:#181818;stroke-width:0.5;" x1="32.2" x2="193.8055" y1="147" y2="147"/><line style="stroke:#181818;stroke-width:0.5;" x1="32.2" x2="193.8055" y1="155" y2="155"/></g><!--class B1--><g class="entity" data-entity="B1" data-source-line="6" data-uid="ent0005" id="entity_B1"><rect fill="#F1F1F1" height="48" rx="3.5" ry="3.5" style="stroke:#181818;stroke-width:0.5;" width="175.083" x="22.46" y="223"/><ellipse cx="37.46" cy="239" fill="#ADD1B2" rx="11" ry="11" style="stroke:#181818;stroke-width:1;"/><path d="M40.4288,244.6406 Q39.8506,244.9375 39.21,245.0781 Q38.5694,245.2344 37.8663,245.2344 Q35.3663,245.2344 34.0381,243.5938 Q32.7256,241.9375 32.7256,238.8125 Q32.7256,235.6875 34.0381,234.0313 Q35.3663,232.375 37.8663,232.375 Q38.5694,232.375 39.21,232.5313 Q39.8663,232.6875 40.4288,232.9844 L40.4288,235.7031 Q39.8038,235.125 39.21,234.8594 Q38.6163,234.5781 37.9913,234.5781 Q36.6475,234.5781 35.96,235.6563 Q35.2725,236.7188 35.2725,238.8125 Q35.2725,240.9063 35.96,241.9844 Q36.6475,243.0469 37.9913,243.0469 Q38.6163,243.0469 39.21,242.7813 Q39.8038,242.5 40.4288,241.9219 L40.4288,244.6406 Z " fill="#000000"/><text fill="#000000" font-family="sans-serif" font-size="14" lengthAdjust="spacing" textLength="143.083" x="51.46" y="243.8467">&#1055;&#1086;&#1083;&#1091;&#1095;&#1077;&#1085;&#1080;&#1077; &#1086;&#1090;&#1074;&#1077;&#1090;&#1086;&#1074;</text><line style="stroke:#181818;stroke-width:0.5;" x1="23.46" x2="196.543" y1="255" y2="255"/><line style="stroke:#181818;stroke-width:0.5;" x1="23.46" x2="196.543" y1="263" y2="263"/></g><!--class C1--><g class="entity" data-entity="C1" data-source-line="7" data-uid="ent0006" id="entity_C1"><rect fill="#F1F1F1" height="48" rx="3.5" ry="3.5" style="stroke:#181818;stroke-width:0.5;" width="150.3574" x="34.82" y="331"/><ellipse cx="49.82" cy="347" fill="#ADD1B2" rx="11" ry="11" style="stroke:#181818;stroke-width:1;"/><path d="M52.7888,352.6406 Q52.2106,352.9375 51.57,353.0781 Q50.9294,353.2344 50.2263,353.2344 Q47.7263,353.2344 46.3981,351.5938 Q45.0856,349.9375 45.0856,346.8125 Q45.0856,343.6875 46.3981,342.0313 Q47.7263,340.375 50.2263,340.375 Q50.9294,340.375 51.57,340.5313 Q52.2263,340.6875 52.7888,340.9844 L52.7888,343.7031 Q52.1638,343.125 51.57,342.8594 Q50.9763,342.5781 50.3513,342.5781 Q49.0075,342.5781 48.32,343.6563 Q47.6325,344.7188 47.6325,346.8125 Q47.6325,348.9063 48.32,349.9844 Q49.0075,351.0469 50.3513,351.0469 Q50.9763,351.0469 51.57,350.7813 Q52.1638,350.5 52.7888,349.9219 L52.7888,352.6406 Z " fill="#000000"/><text fill="#000000" font-family="sans-serif" font-size="14" lengthAdjust="spacing" textLength="118.3574" x="63.82" y="351.8467">&#1054;&#1094;&#1077;&#1085;&#1082;&#1072; &#1086;&#1090;&#1074;&#1077;&#1090;&#1086;&#1074;</text><line style="stroke:#181818;stroke-width:0.5;" x1="35.82" x2="184.1774" y1="363" y2="363"/><line style="stroke:#181818;stroke-width:0.5;" x1="35.82" x2="184.1774" y1="371" y2="371"/></g><!--class D1--><g class="entity" data-entity="D1" data-source-line="8" data-uid="ent0007" id="entity_D1"><rect fill="#F1F1F1" height="48" rx="3.5" ry="3.5" style="stroke:#181818;stroke-width:0.5;" width="174.4609" x="22.77" y="439"/><ellipse cx="37.77" cy="455" fill="#ADD1B2" rx="11" ry="11" style="stroke:#181818;stroke-width:1;"/><path d="M40.7388,460.6406 Q40.1606,460.9375 39.52,461.0781 Q38.8794,461.2344 38.1763,461.2344 Q35.6763,461.2344 34.3481,459.5938 Q33.0356,457.9375 33.0356,454.8125 Q33.0356,451.6875 34.3481,450.0313 Q35.6763,448.375 38.1763,448.375 Q38.8794,448.375 39.52,448.5313 Q40.1763,448.6875 40.7388,448.9844 L40.7388,451.7031 Q40.1138,451.125 39.52,450.8594 Q38.9263,450.5781 38.3013,450.5781 Q36.9575,450.5781 36.27,451.6563 Q35.5825,452.7188 35.5825,454.8125 Q35.5825,456.9063 36.27,457.9844 Q36.9575,459.0469 38.3013,459.0469 Q38.9263,459.0469 39.52,458.7813 Q40.1138,458.5 40.7388,457.9219 L40.7388,460.6406 Z " fill="#000000"/><text fill="#000000" font-family="sans-serif" font-size="14" lengthAdjust="spacing" textLength="142.4609" x="51.77" y="459.8467">&#1043;&#1077;&#1085;&#1077;&#1088;&#1072;&#1094;&#1080;&#1103; &#1086;&#1090;&#1095;&#1077;&#1090;&#1086;&#1074;</text><line style="stroke:#181818;stroke-width:0.5;" x1="23.77" x2="196.2309" y1="471" y2="471"/><line style="stroke:#181818;stroke-width:0.5;" x1="23.77" x2="196.2309" y1="479" y2="479"/></g><!--class ??????1--><g class="entity" data-entity="......1" data-source-line="9" data-uid="ent0008" id="entity_......1"><rect fill="#F1F1F1" height="48" rx="3.5" ry="3.5" style="stroke:#181818;stroke-width:0.5;" width="151.376" x="34.31" y="547"/><ellipse cx="49.31" cy="563" fill="#ADD1B2" rx="11" ry="11" style="stroke:#181818;stroke-width:1;"/><path d="M52.2788,568.6406 Q51.7006,568.9375 51.06,569.0781 Q50.4194,569.2344 49.7163,569.2344 Q47.2163,569.2344 45.8881,567.5938 Q44.5756,565.9375 44.5756,562.8125 Q44.5756,559.6875 45.8881,558.0313 Q47.2163,556.375 49.7163,556.375 Q50.4194,556.375 51.06,556.5313 Q51.7163,556.6875 52.2788,556.9844 L52.2788,559.7031 Q51.6538,559.125 51.06,558.8594 Q50.4663,558.5781 49.8413,558.5781 Q48.4975,558.5781 47.81,559.6563 Q47.1225,560.7188 47.1225,562.8125 Q47.1225,564.9063 47.81,565.9844 Q48.4975,567.0469 49.8413,567.0469 Q50.4663,567.0469 51.06,566.7813 Q51.6538,566.5 52.2788,565.9219 L52.2788,568.6406 Z " fill="#000000"/><text fill="#000000" font-family="sans-serif" font-size="14" lengthAdjust="spacing" textLength="119.376" x="63.31" y="567.8467">&#128196; &#1054;&#1090;&#1095;&#1077;&#1090;&#1099;.md (1)</text><line style="stroke:#181818;stroke-width:0.5;" x1="35.31" x2="184.686" y1="579" y2="579"/><line style="stroke:#181818;stroke-width:0.5;" x1="35.31" x2="184.686" y1="587" y2="587"/></g><!--class B2--><g class="entity" data-entity="B2" data-source-line="13" data-uid="ent0010" id="entity_B2"><rect fill="#F1F1F1" height="48" rx="3.5" ry="3.5" style="stroke:#181818;stroke-width:0.5;" width="175.083" x="254.46" y="115"/><ellipse cx="269.46" cy="131" fill="#ADD1B2" rx="11" ry="11" style="stroke:#181818;stroke-width:1;"/><path d="M272.4288,136.6406 Q271.8506,136.9375 271.21,137.0781 Q270.5694,137.2344 269.8663,137.2344 Q267.3663,137.2344 266.0381,135.5938 Q264.7256,133.9375 264.7256,130.8125 Q264.7256,127.6875 266.0381,126.0313 Q267.3663,124.375 269.8663,124.375 Q270.5694,124.375 271.21,124.5313 Q271.8663,124.6875 272.4288,124.9844 L272.4288,127.7031 Q271.8038,127.125 271.21,126.8594 Q270.6163,126.5781 269.9913,126.5781 Q268.6475,126.5781 267.96,127.6563 Q267.2725,128.7188 267.2725,130.8125 Q267.2725,132.9063 267.96,133.9844 Q268.6475,135.0469 269.9913,135.0469 Q270.6163,135.0469 271.21,134.7813 Q271.8038,134.5 272.4288,133.9219 L272.4288,136.6406 Z " fill="#000000"/><text fill="#000000" font-family="sans-serif" font-size="14" lengthAdjust="spacing" textLength="143.083" x="283.46" y="135.8467">&#1055;&#1086;&#1083;&#1091;&#1095;&#1077;&#1085;&#1080;&#1077; &#1086;&#1090;&#1074;&#1077;&#1090;&#1086;&#1074;</text><line style="stroke:#181818;stroke-width:0.5;" x1="255.46" x2="428.543" y1="147" y2="147"/><line style="stroke:#181818;stroke-width:0.5;" x1="255.46" x2="428.543" y1="155" y2="155"/></g><!--class C2--><g class="entity" data-entity="C2" data-source-line="14" data-uid="ent0011" id="entity_C2"><rect fill="#F1F1F1" height="48" rx="3.5" ry="3.5" style="stroke:#181818;stroke-width:0.5;" width="150.3574" x="266.82" y="223"/><ellipse cx="281.82" cy="239" fill="#ADD1B2" rx="11" ry="11" style="stroke:#181818;stroke-width:1;"/><path d="M284.7888,244.6406 Q284.2106,244.9375 283.57,245.0781 Q282.9294,245.2344 282.2263,245.2344 Q279.7263,245.2344 278.3981,243.5938 Q277.0856,241.9375 277.0856,238.8125 Q277.0856,235.6875 278.3981,234.0313 Q279.7263,232.375 282.2263,232.375 Q282.9294,232.375 283.57,232.5313 Q284.2263,232.6875 284.7888,232.9844 L284.7888,235.7031 Q284.1638,235.125 283.57,234.8594 Q282.9763,234.5781 282.3513,234.5781 Q281.0075,234.5781 280.32,235.6563 Q279.6325,236.7188 279.6325,238.8125 Q279.6325,240.9063 280.32,241.9844 Q281.0075,243.0469 282.3513,243.0469 Q282.9763,243.0469 283.57,242.7813 Q284.1638,242.5 284.7888,241.9219 L284.7888,244.6406 Z " fill="#000000"/><text fill="#000000" font-family="sans-serif" font-size="14" lengthAdjust="spacing" textLength="118.3574" x="295.82" y="243.8467">&#1054;&#1094;&#1077;&#1085;&#1082;&#1072; &#1086;&#1090;&#1074;&#1077;&#1090;&#1086;&#1074;</text><line style="stroke:#181818;stroke-width:0.5;" x1="267.82" x2="416.1774" y1="255" y2="255"/><line style="stroke:#181818;stroke-width:0.5;" x1="267.82" x2="416.1774" y1="263" y2="263"/></g><!--class D2--><g class="entity" data-entity="D2" data-source-line="15" data-uid="ent0012" id="entity_D2"><rect fill="#F1F1F1" height="48" rx="3.5" ry="3.5" style="stroke:#181818;stroke-width:0.5;" width="174.4609" x="254.77" y="331"/><ellipse cx="269.77" cy="347" fill="#ADD1B2" rx="11" ry="11" style="stroke:#181818;stroke-width:1;"/><path d="M272.7388,352.6406 Q272.1606,352.9375 271.52,353.0781 Q270.8794,353.2344 270.1763,353.2344 Q267.6763,353.2344 266.3481,351.5938 Q265.0356,349.9375 265.0356,346.8125 Q265.0356,343.6875 266.3481,342.0313 Q267.6763,340.375 270.1763,340.375 Q270.8794,340.375 271.52,340.5313 Q272.1763,340.6875 272.7388,340.9844 L272.7388,343.7031 Q272.1138,343.125 271.52,342.8594 Q270.9263,342.5781 270.3013,342.5781 Q268.9575,342.5781 268.27,343.6563 Q267.5825,344.7188 267.5825,346.8125 Q267.5825,348.9063 268.27,349.9844 Q268.9575,351.0469 270.3013,351.0469 Q270.9263,351.0469 271.52,350.7813 Q272.1138,350.5 272.7388,349.9219 L272.7388,352.6406 Z " fill="#000000"/><text fill="#000000" font-family="sans-serif" font-size="14" lengthAdjust="spacing" textLength="142.4609" x="283.77" y="351.8467">&#1043;&#1077;&#1085;&#1077;&#1088;&#1072;&#1094;&#1080;&#1103; &#1086;&#1090;&#1095;&#1077;&#1090;&#1086;&#1074;</text><line style="stroke:#181818;stroke-width:0.5;" x1="255.77" x2="428.2309" y1="363" y2="363"/><line style="stroke:#181818;stroke-width:0.5;" x1="255.77" x2="428.2309" y1="371" y2="371"/></g><!--class ??????2--><g class="entity" data-entity="......2" data-source-line="16" data-uid="ent0013" id="entity_......2"><rect fill="#F1F1F1" height="48" rx="3.5" ry="3.5" style="stroke:#181818;stroke-width:0.5;" width="151.376" x="266.31" y="439"/><ellipse cx="281.31" cy="455" fill="#ADD1B2" rx="11" ry="11" style="stroke:#181818;stroke-width:1;"/><path d="M284.2788,460.6406 Q283.7006,460.9375 283.06,461.0781 Q282.4194,461.2344 281.7163,461.2344 Q279.2163,461.2344 277.8881,459.5938 Q276.5756,457.9375 276.5756,454.8125 Q276.5756,451.6875 277.8881,450.0313 Q279.2163,448.375 281.7163,448.375 Q282.4194,448.375 283.06,448.5313 Q283.7163,448.6875 284.2788,448.9844 L284.2788,451.7031 Q283.6538,451.125 283.06,450.8594 Q282.4663,450.5781 281.8413,450.5781 Q280.4975,450.5781 279.81,451.6563 Q279.1225,452.7188 279.1225,454.8125 Q279.1225,456.9063 279.81,457.9844 Q280.4975,459.0469 281.8413,459.0469 Q282.4663,459.0469 283.06,458.7813 Q283.6538,458.5 284.2788,457.9219 L284.2788,460.6406 Z " fill="#000000"/><text fill="#000000" font-family="sans-serif" font-size="14" lengthAdjust="spacing" textLength="119.376" x="295.31" y="459.8467">&#128196; &#1054;&#1090;&#1095;&#1077;&#1090;&#1099;.md (2)</text><line style="stroke:#181818;stroke-width:0.5;" x1="267.31" x2="416.686" y1="471" y2="471"/><line style="stroke:#181818;stroke-width:0.5;" x1="267.31" x2="416.686" y1="479" y2="479"/></g><!--class C3--><g class="entity" data-entity="C3" data-source-line="20" data-uid="ent0015" id="entity_C3"><rect fill="#F1F1F1" height="48" rx="3.5" ry="3.5" style="stroke:#181818;stroke-width:0.5;" width="150.3574" x="491.82" y="115"/><ellipse cx="506.82" cy="131" fill="#ADD1B2" rx="11" ry="11" style="stroke:#181818;stroke-width:1;"/><path d="M509.7888,136.6406 Q509.2106,136.9375 508.57,137.0781 Q507.9294,137.2344 507.2263,137.2344 Q504.7263,137.2344 503.3981,135.5938 Q502.0856,133.9375 502.0856,130.8125 Q502.0856,127.6875 503.3981,126.0313 Q504.7263,124.375 507.2263,124.375 Q507.9294,124.375 508.57,124.5313 Q509.2263,124.6875 509.7888,124.9844 L509.7888,127.7031 Q509.1638,127.125 508.57,126.8594 Q507.9763,126.5781 507.3513,126.5781 Q506.0075,126.5781 505.32,127.6563 Q504.6325,128.7188 504.6325,130.8125 Q504.6325,132.9063 505.32,133.9844 Q506.0075,135.0469 507.3513,135.0469 Q507.9763,135.0469 508.57,134.7813 Q509.1638,134.5 509.7888,133.9219 L509.7888,136.6406 Z " fill="#000000"/><text fill="#000000" font-family="sans-serif" font-size="14" lengthAdjust="spacing" textLength="118.3574" x="520.82" y="135.8467">&#1054;&#1094;&#1077;&#1085;&#1082;&#1072; &#1086;&#1090;&#1074;&#1077;&#1090;&#1086;&#1074;</text><line style="stroke:#181818;stroke-width:0.5;" x1="492.82" x2="641.1774" y1="147" y2="147"/><line style="stroke:#181818;stroke-width:0.5;" x1="492.82" x2="641.1774" y1="155" y2="155"/></g><!--class D3--><g class="entity" data-entity="D3" data-source-line="21" data-uid="ent0016" id="entity_D3"><rect fill="#F1F1F1" height="48" rx="3.5" ry="3.5" style="stroke:#181818;stroke-width:0.5;" width="174.4609" x="485.77" y="223"/><ellipse cx="500.77" cy="239" fill="#ADD1B2" rx="11" ry="11" style="stroke:#181818;stroke-width:1;"/><path d="M503.7388,244.6406 Q503.1606,244.9375 502.52,245.0781 Q501.8794,245.2344 501.1763,245.2344 Q498.6763,245.2344 497.3481,243.5938 Q496.0356,241.9375 496.0356,238.8125 Q496.0356,235.6875 497.3481,234.0313 Q498.6763,232.375 501.1763,232.375 Q501.8794,232.375 502.52,232.5313 Q503.1763,232.6875 503.7388,232.9844 L503.7388,235.7031 Q503.1138,235.125 502.52,234.8594 Q501.9263,234.5781 501.3013,234.5781 Q499.9575,234.5781 499.27,235.6563 Q498.5825,236.7188 498.5825,238.8125 Q498.5825,240.9063 499.27,241.9844 Q499.9575,243.0469 501.3013,243.0469 Q501.9263,243.0469 502.52,242.7813 Q503.1138,242.5 503.7388,241.9219 L503.7388,244.6406 Z " fill="#000000"/><text fill="#000000" font-family="sans-serif" font-size="14" lengthAdjust="spacing" textLength="142.4609" x="514.77" y="243.8467">&#1043;&#1077;&#1085;&#1077;&#1088;&#1072;&#1094;&#1080;&#1103; &#1086;&#1090;&#1095;&#1077;&#1090;&#1086;&#1074;</text><line style="stroke:#181818;stroke-width:0.5;" x1="486.77" x2="659.2309" y1="255" y2="255"/><line style="stroke:#181818;stroke-width:0.5;" x1="486.77" x2="659.2309" y1="263" y2="263"/></g><!--class ??????3--><g class="entity" data-entity="......3" data-source-line="22" data-uid="ent0017" id="entity_......3"><rect fill="#F1F1F1" height="48" rx="3.5" ry="3.5" style="stroke:#181818;stroke-width:0.5;" width="151.376" x="497.31" y="331"/><ellipse cx="512.31" cy="347" fill="#ADD1B2" rx="11" ry="11" style="stroke:#181818;stroke-width:1;"/><path d="M515.2788,352.6406 Q514.7006,352.9375 514.06,353.0781 Q513.4194,353.2344 512.7163,353.2344 Q510.2162,353.2344 508.8881,351.5938 Q507.5756,349.9375 507.5756,346.8125 Q507.5756,343.6875 508.8881,342.0313 Q510.2162,340.375 512.7163,340.375 Q513.4194,340.375 514.06,340.5313 Q514.7163,340.6875 515.2788,340.9844 L515.2788,343.7031 Q514.6538,343.125 514.06,342.8594 Q513.4663,342.5781 512.8413,342.5781 Q511.4975,342.5781 510.81,343.6563 Q510.1225,344.7188 510.1225,346.8125 Q510.1225,348.9063 510.81,349.9844 Q511.4975,351.0469 512.8413,351.0469 Q513.4663,351.0469 514.06,350.7813 Q514.6538,350.5 515.2788,349.9219 L515.2788,352.6406 Z " fill="#000000"/><text fill="#000000" font-family="sans-serif" font-size="14" lengthAdjust="spacing" textLength="119.376" x="526.31" y="351.8467">&#128196; &#1054;&#1090;&#1095;&#1077;&#1090;&#1099;.md (3)</text><line style="stroke:#181818;stroke-width:0.5;" x1="498.31" x2="647.686" y1="363" y2="363"/><line style="stroke:#181818;stroke-width:0.5;" x1="498.31" x2="647.686" y1="371" y2="371"/></g><!--class D4--><g class="entity" data-entity="D4" data-source-line="26" data-uid="ent0019" id="entity_D4"><rect fill="#F1F1F1" height="48" rx="3.5" ry="3.5" style="stroke:#181818;stroke-width:0.5;" width="174.4609" x="715.77" y="115"/><ellipse cx="730.77" cy="131" fill="#ADD1B2" rx="11" ry="11" style="stroke:#181818;stroke-width:1;"/><path d="M733.7388,136.6406 Q733.1606,136.9375 732.52,137.0781 Q731.8794,137.2344 731.1763,137.2344 Q728.6763,137.2344 727.3481,135.5938 Q726.0356,133.9375 726.0356,130.8125 Q726.0356,127.6875 727.3481,126.0313 Q728.6763,124.375 731.1763,124.375 Q731.8794,124.375 732.52,124.5313 Q733.1763,124.6875 733.7388,124.9844 L733.7388,127.7031 Q733.1138,127.125 732.52,126.8594 Q731.9263,126.5781 731.3013,126.5781 Q729.9575,126.5781 729.27,127.6563 Q728.5825,128.7188 728.5825,130.8125 Q728.5825,132.9063 729.27,133.9844 Q729.9575,135.0469 731.3013,135.0469 Q731.9263,135.0469 732.52,134.7813 Q733.1138,134.5 733.7388,133.9219 L733.7388,136.6406 Z " fill="#000000"/><text fill="#000000" font-family="sans-serif" font-size="14" lengthAdjust="spacing" textLength="142.4609" x="744.77" y="135.8467">&#1043;&#1077;&#1085;&#1077;&#1088;&#1072;&#1094;&#1080;&#1103; &#1086;&#1090;&#1095;&#1077;&#1090;&#1086;&#1074;</text><line style="stroke:#181818;stroke-width:0.5;" x1="716.77" x2="889.2309" y1="147" y2="147"/><line style="stroke:#181818;stroke-width:0.5;" x1="716.77" x2="889.2309" y1="155" y2="155"/></g><!--class ??????4--><g class="entity" data-entity="......4" data-source-line="27" data-uid="ent0020" id="entity_......4"><rect fill="#F1F1F1" height="48" rx="3.5" ry="3.5" style="stroke:#181818;stroke-width:0.5;" width="151.376" x="727.31" y="223"/><ellipse cx="742.31" cy="239" fill="#ADD1B2" rx="11" ry="11" style="stroke:#181818;stroke-width:1;"/><path d="M745.2788,244.6406 Q744.7006,244.9375 744.06,245.0781 Q743.4194,245.2344 742.7163,245.2344 Q740.2163,245.2344 738.8881,243.5938 Q737.5756,241.9375 737.5756,238.8125 Q737.5756,235.6875 738.8881,234.0313 Q740.2163,232.375 742.7163,232.375 Q743.4194,232.375 744.06,232.5313 Q744.7163,232.6875 745.2788,232.9844 L745.2788,235.7031 Q744.6538,235.125 744.06,234.8594 Q743.4663,234.5781 742.8413,234.5781 Q741.4975,234.5781 740.81,235.6563 Q740.1225,236.7188 740.1225,238.8125 Q740.1225,240.9063 740.81,241.9844 Q741.4975,243.0469 742.8413,243.0469 Q743.4663,243.0469 744.06,242.7813 Q744.6538,242.5 745.2788,241.9219 L745.2788,244.6406 Z " fill="#000000"/><text fill="#000000" font-family="sans-serif" font-size="14" lengthAdjust="spacing" textLength="119.376" x="756.31" y="243.8467">&#128196; &#1054;&#1090;&#1095;&#1077;&#1090;&#1099;.md (4)</text><line style="stroke:#181818;stroke-width:0.5;" x1="728.31" x2="877.686" y1="255" y2="255"/><line style="stroke:#181818;stroke-width:0.5;" x1="728.31" x2="877.686" y1="263" y2="263"/></g><!--class ???????????--><g class="entity" data-entity="..........." data-source-line="2" data-uid="ent0002" id="entity_..........."><rect fill="#F1F1F1" height="48" rx="3.5" ry="3.5" style="stroke:#181818;stroke-width:0.5;" width="129.3438" x="389.33" y="7"/><ellipse cx="404.33" cy="23" fill="#ADD1B2" rx="11" ry="11" style="stroke:#181818;stroke-width:1;"/><path d="M407.2988,28.6406 Q406.7206,28.9375 406.08,29.0781 Q405.4394,29.2344 404.7363,29.2344 Q402.2363,29.2344 400.9081,27.5938 Q399.5956,25.9375 399.5956,22.8125 Q399.5956,19.6875 400.9081,18.0313 Q402.2363,16.375 404.7363,16.375 Q405.4394,16.375 406.08,16.5313 Q406.7363,16.6875 407.2988,16.9844 L407.2988,19.7031 Q406.6738,19.125 406.08,18.8594 Q405.4863,18.5781 404.8613,18.5781 Q403.5175,18.5781 402.83,19.6563 Q402.1425,20.7188 402.1425,22.8125 Q402.1425,24.9063 402.83,25.9844 Q403.5175,27.0469 404.8613,27.0469 Q405.4863,27.0469 406.08,26.7813 Q406.6738,26.5 407.2988,25.9219 L407.2988,28.6406 Z " fill="#000000"/><text fill="#000000" font-family="sans-serif" font-size="14" lengthAdjust="spacing" textLength="97.3438" x="418.33" y="27.8467">&#1054;&#1088;&#1082;&#1077;&#1089;&#1090;&#1088;&#1072;&#1094;&#1080;&#1103;</text><line style="stroke:#181818;stroke-width:0.5;" x1="390.33" x2="517.6737" y1="39" y2="39"/><line style="stroke:#181818;stroke-width:0.5;" x1="390.33" x2="517.6737" y1="47" y2="47"/></g><!--link A1 to B1--><g class="link" data-entity-1="A1" data-entity-2="B1" data-source-line="31" data-uid="lnk21" id="link_A1_B1"><path codeLine="31" d="M112.34,163.26 C111.84,180.94 111.3298,199.1324 110.8298,216.7924" fill="none" id="A1-to-B1" style="stroke:#454645;stroke-width:1;"/><polygon fill="#454645" points="110.66,222.79,114.9131,213.9068,110.8015,217.792,106.9163,213.6804,110.66,222.79" style="stroke:#454645;stroke-width:1;"/></g><!--link B1 to C1--><g class="link" data-entity-1="B1" data-entity-2="C1" data-source-line="32" data-uid="lnk22" id="link_B1_C1"><path codeLine="32" d="M110,271.26 C110,288.94 110,307.13 110,324.79" fill="none" id="B1-to-C1" style="stroke:#454645;stroke-width:1;"/><polygon fill="#454645" points="110,330.79,114,321.79,110,325.79,106,321.79,110,330.79" style="stroke:#454645;stroke-width:1;"/></g><!--link C1 to D1--><g class="link" data-entity-1="C1" data-entity-2="D1" data-source-line="33" data-uid="lnk23" id="link_C1_D1"><path codeLine="33" d="M110,379.26 C110,396.94 110,415.13 110,432.79" fill="none" id="C1-to-D1" style="stroke:#454645;stroke-width:1;"/><polygon fill="#454645" points="110,438.79,114,429.79,110,433.79,106,429.79,110,438.79" style="stroke:#454645;stroke-width:1;"/></g><!--link D1 to ??????1--><g class="link" data-entity-1="D1" data-entity-2="......1" data-source-line="34" data-uid="lnk24" id="link_D1_......1"><path codeLine="34" d="M110,487.26 C110,504.94 110,523.13 110,540.79" fill="none" id="D1-to-&#1054;&#1090;&#1095;&#1077;&#1090;&#1099;1" style="stroke:#454645;stroke-width:1;"/><polygon fill="#454645" points="110,546.79,114,537.79,110,541.79,106,537.79,110,546.79" style="stroke:#454645;stroke-width:1;"/></g><!--link B2 to C2--><g class="link" data-entity-1="B2" data-entity-2="C2" data-source-line="37" data-uid="lnk25" id="link_B2_C2"><path codeLine="37" d="M342,163.26 C342,180.94 342,199.13 342,216.79" fill="none" id="B2-to-C2" style="stroke:#454645;stroke-width:1;"/><polygon fill="#454645" points="342,222.79,346,213.79,342,217.79,338,213.79,342,222.79" style="stroke:#454645;stroke-width:1;"/></g><!--link C2 to D2--><g class="link" data-entity-1="C2" data-entity-2="D2" data-source-line="38" data-uid="lnk26" id="link_C2_D2"><path codeLine="38" d="M342,271.26 C342,288.94 342,307.13 342,324.79" fill="none" id="C2-to-D2" style="stroke:#454645;stroke-width:1;"/><polygon fill="#454645" points="342,330.79,346,321.79,342,325.79,338,321.79,342,330.79" style="stroke:#454645;stroke-width:1;"/></g><!--link D2 to ??????2--><g class="link" data-entity-1="D2" data-entity-2="......2" data-source-line="39" data-uid="lnk27" id="link_D2_......2"><path codeLine="39" d="M342,379.26 C342,396.94 342,415.13 342,432.79" fill="none" id="D2-to-&#1054;&#1090;&#1095;&#1077;&#1090;&#1099;2" style="stroke:#454645;stroke-width:1;"/><polygon fill="#454645" points="342,438.79,346,429.79,342,433.79,338,429.79,342,438.79" style="stroke:#454645;stroke-width:1;"/></g><!--link C3 to D3--><g class="link" data-entity-1="C3" data-entity-2="D3" data-source-line="42" data-uid="lnk28" id="link_C3_D3"><path codeLine="42" d="M568.32,163.26 C569.32,180.94 570.3508,199.1396 571.3508,216.7996" fill="none" id="C3-to-D3" style="stroke:#454645;stroke-width:1;"/><polygon fill="#454645" points="571.69,222.79,575.1748,213.5783,571.4073,217.798,567.1876,214.0305,571.69,222.79" style="stroke:#454645;stroke-width:1;"/></g><!--link D3 to ??????3--><g class="link" data-entity-1="D3" data-entity-2="......3" data-source-line="43" data-uid="lnk29" id="link_D3_......3"><path codeLine="43" d="M573,271.26 C573,288.94 573,307.13 573,324.79" fill="none" id="D3-to-&#1054;&#1090;&#1095;&#1077;&#1090;&#1099;3" style="stroke:#454645;stroke-width:1;"/><polygon fill="#454645" points="573,330.79,577,321.79,573,325.79,569,321.79,573,330.79" style="stroke:#454645;stroke-width:1;"/></g><!--link D4 to ??????4--><g class="link" data-entity-1="D4" data-entity-2="......4" data-source-line="46" data-uid="lnk30" id="link_D4_......4"><path codeLine="46" d="M803,163.26 C803,180.94 803,199.13 803,216.79" fill="none" id="D4-to-&#1054;&#1090;&#1095;&#1077;&#1090;&#1099;4" style="stroke:#454645;stroke-width:1;"/><polygon fill="#454645" points="803,222.79,807,213.79,803,217.79,799,213.79,803,222.79" style="stroke:#454645;stroke-width:1;"/></g><!--link ??????????? to A1--><g class="link" data-entity-1="..........." data-entity-2="A1" data-source-line="49" data-uid="lnk31" id="link_..........._A1"><path codeLine="49" d="M388.89,38.84 C345.32,44.67 287.17,54.91 238,72 C207.05,82.75 179.5567,97.1896 155.3867,111.4596" fill="none" id="&#1054;&#1088;&#1082;&#1077;&#1089;&#1090;&#1088;&#1072;&#1094;&#1080;&#1103;-to-A1" style="stroke:#454645;stroke-width:1;"/><polygon fill="#454645" points="150.22,114.51,160.0037,113.3788,154.5256,111.968,155.9364,106.4899,150.22,114.51" style="stroke:#454645;stroke-width:1;"/></g><!--link ??????????? to B2--><g class="link" data-entity-1="..........." data-entity-2="B2" data-source-line="50" data-uid="lnk32" id="link_..........._B2"><path codeLine="50" d="M429.42,55.26 C410.75,72.94 389.5378,93.0057 370.8778,110.6657" fill="none" id="&#1054;&#1088;&#1082;&#1077;&#1089;&#1090;&#1088;&#1072;&#1094;&#1080;&#1103;-to-B2" style="stroke:#454645;stroke-width:1;"/><polygon fill="#454645" points="366.52,114.79,375.8062,111.5088,370.1515,111.3531,370.3072,105.6984,366.52,114.79" style="stroke:#454645;stroke-width:1;"/></g><!--link ??????????? to C3--><g class="link" data-entity-1="..........." data-entity-2="C3" data-source-line="51" data-uid="lnk33" id="link_..........._C3"><path codeLine="51" d="M478.8,55.26 C497.64,72.94 519.0536,93.0255 537.8836,110.6855" fill="none" id="&#1054;&#1088;&#1082;&#1077;&#1089;&#1090;&#1088;&#1072;&#1094;&#1080;&#1103;-to-C3" style="stroke:#454645;stroke-width:1;"/><polygon fill="#454645" points="542.26,114.79,538.4317,105.7156,538.613,111.3696,532.959,111.5509,542.26,114.79" style="stroke:#454645;stroke-width:1;"/></g><!--link ??????????? to D4--><g class="link" data-entity-1="..........." data-entity-2="D4" data-source-line="52" data-uid="lnk34" id="link_..........._D4"><path codeLine="52" d="M518.93,38.48 C563.9,44.22 624.67,54.49 676,72 C707.51,82.75 735.6437,97.3131 760.2437,111.6231" fill="none" id="&#1054;&#1088;&#1082;&#1077;&#1089;&#1090;&#1088;&#1072;&#1094;&#1080;&#1103;-to-D4" style="stroke:#454645;stroke-width:1;"/><polygon fill="#454645" points="765.43,114.64,759.6618,106.657,761.1081,112.1259,755.6392,113.5722,765.43,114.64" style="stroke:#454645;stroke-width:1;"/></g><!--SRC=[fLHDJi905DxFASPkr0KcdUdQn7QEu0Kg4ZM8CPQuCIO2HXR4T85h6fSkJ6f3jU7FAxovWXUG8_YcKv42QOAGaBpoVL_d-nxlpLRzj5AhqEkpeolteaxAvwxdKUZ9EnX0B1koYLKe7o2HFY6NRhdgdbIeCGsU6lJGzQhKDEWDeVZHoWEJkXure0TliYNR4CCO4eWfZ602VNmSGcBCyUsC7o0yp2iciWaHUcWY5CrhdDypq9PY3o0iO8kCtKsvyL-SLACENDRWgpD4ThHy6dJlSp_lrOxfZhbhaDkvjdpvBxehBDyLc_qZ9Lih9Tii9Ij8oPPIldudlWxAyq4TlfPflfbfNc2QBvYU1dusiLRUih0sCs4LcB2qYMqApn197puWKPiGmplqPOlAHtnr29_u7IaaWZ4EXzgu95ikWljKAktZcX1RLuv975q9amXTvSPL7QTdaE3OfH9675q9HWHRah2PX1Fy0rCY9u8l4VcCQ15iso9iBIR5_gsyIXGse9XRTJkI7HZbMa5H7U9b4SesMNqJfKSVc4MepOfGXnUXmle1]--></g></svg>